<?xml version="1.0" encoding="UTF-8"?>
<svg id="Calque_2" data-name="Calque 2" xmlns="http://www.w3.org/2000/svg" viewBox="0 0 435.69 160.43">
  <defs>
    <style>
      .cls-1 {
        fill: #fdce7a;
      }

      .cls-2 {
        fill: #453b5e;
      }

      .cls-3 {
        fill: #f07864;
      }

      .cls-4 {
        fill: #87cbc2;
      }

      .cls-5 {
        fill: #6170b5;
      }
    </style>
  </defs>
  <g id="Calque_1-2" data-name="Calque 1">
    <g>
      <g>
        <path class="cls-2" d="M131.47,58.48c-1.03.83-2.75,1.24-5.16,1.24h-7.38v-9.79h7.38c2.41,0,4.13.4,5.16,1.2,1.03.81,1.54,2.03,1.54,3.69s-.51,2.83-1.54,3.65M140.17,44.92c-2.81-2.39-7.03-3.58-12.66-3.58h-19.81v42.11h11.22v-15.14h8.59c5.62,0,9.84-1.19,12.66-3.58,2.81-2.38,4.22-5.69,4.22-9.9s-1.41-7.52-4.22-9.91"/>
        <path class="cls-2" d="M177.65,59.65c-2.13-.7-4.83-1.33-8.1-1.88-2.06-.35-3.64-.68-4.74-.98-1.11-.3-2.02-.74-2.75-1.32-.73-.58-1.09-1.34-1.09-2.3,0-1.31.49-2.34,1.47-3.09.98-.75,2.45-1.13,4.41-1.13,2.31,0,4.15.52,5.54,1.54,1.38,1.03,2.37,2.6,2.98,4.71l9.79-2.33c-1-4.07-3.09-7.14-6.25-9.23-3.16-2.08-7.18-3.13-12.05-3.13-3.37,0-6.32.55-8.85,1.66-2.54,1.11-4.51,2.66-5.91,4.67-1.4,2.01-2.11,4.29-2.11,6.85,0,3.01.76,5.37,2.3,7.08,1.53,1.71,3.34,2.9,5.42,3.58,2.08.68,4.73,1.29,7.95,1.85,2.11.4,3.75.77,4.93,1.09,1.18.33,2.16.79,2.94,1.39.78.6,1.17,1.46,1.17,2.56,0,1.36-.58,2.42-1.73,3.2-1.16.78-2.71,1.17-4.67,1.17-2.56,0-4.71-.56-6.44-1.69-1.73-1.13-3.03-2.9-3.88-5.31l-9.49,3.09c1.31,4.12,3.63,7.22,6.97,9.3,3.34,2.08,7.6,3.13,12.77,3.13s9.55-1.16,12.69-3.47c3.14-2.31,4.71-5.6,4.71-9.87,0-3.16-.79-5.64-2.37-7.42-1.58-1.78-3.44-3.02-5.57-3.73"/>
      </g>
      <polygon class="cls-2" points="208.55 57.95 199.31 41.34 186.8 41.34 202.7 67.86 202.7 83.45 213.92 83.45 213.92 67.69 229.89 41.34 217.76 41.34 208.55 57.95"/>
      <g>
        <path class="cls-2" d="M259.69,40.72c-3.34,0-6.21.89-8.61,2.66-1.86,1.38-3.26,3.24-4.21,5.56h-.02c0-2.61-.1-5.01-.31-7.2h-10.96c.21,2.87.31,5.98.31,9.31v32.4h11.74v-22.62c0-3.08.74-5.37,2.23-6.89,1.49-1.51,3.43-2.27,5.83-2.27,2.24,0,3.93.63,5.05,1.88,1.12,1.25,1.68,3.11,1.68,5.56v24.34h11.74v-26.22c0-5.53-1.29-9.67-3.87-12.4-2.58-2.74-6.12-4.11-10.61-4.11"/>
        <path class="cls-2" d="M308.95,71.2c-1.59,1.9-3.8,2.86-6.61,2.86s-5.09-.95-6.65-2.86c-1.57-1.9-2.35-4.76-2.35-8.57s.78-6.68,2.35-8.61c1.57-1.93,3.78-2.9,6.65-2.9s5.09.97,6.65,2.9c1.57,1.93,2.35,4.8,2.35,8.61s-.8,6.67-2.39,8.57M312.94,43.26c-3.16-1.69-6.69-2.54-10.61-2.54s-7.45.85-10.6,2.54c-3.16,1.7-5.66,4.19-7.51,7.47-1.85,3.29-2.78,7.25-2.78,11.9s.93,8.61,2.78,11.9c1.85,3.29,4.36,5.77,7.51,7.44,3.16,1.67,6.69,2.5,10.6,2.5s7.45-.84,10.61-2.5c3.15-1.67,5.65-4.15,7.47-7.44,1.83-3.29,2.74-7.25,2.74-11.9s-.91-8.61-2.74-11.9c-1.83-3.29-4.32-5.78-7.47-7.47"/>
        <path class="cls-2" d="M349.14,66.23c-.85,3.07-1.56,6.08-2.14,9.06-.61-3.19-1.32-6.27-2.16-9.22l-6.65-24.34h-12.91l12.91,41.71h16.9l12.99-41.71h-12.21l-6.73,24.5Z"/>
      </g>
      <rect class="cls-2" x="373.56" y="41.74" width="11.74" height="41.71"/>
      <g>
        <path class="cls-2" d="M379.43,23.82c-2.14,0-3.91.59-5.32,1.76-1.41,1.17-2.11,2.78-2.11,4.81s.7,3.73,2.11,4.93c1.41,1.2,3.18,1.8,5.32,1.8s3.98-.6,5.36-1.8c1.38-1.2,2.07-2.84,2.07-4.93s-.69-3.64-2.07-4.81c-1.38-1.17-3.17-1.76-5.36-1.76"/>
        <path class="cls-2" d="M419.57,65.14c0,2.4-.43,4.37-1.29,5.91-.86,1.54-1.98,2.69-3.36,3.44-1.38.76-2.86,1.13-4.42,1.13-1.67,0-2.98-.39-3.91-1.17-.94-.78-1.41-1.85-1.41-3.21s.43-2.4,1.29-3.29c.86-.89,2.26-1.51,4.19-1.88l8.92-1.77v.83ZM433.5,75.15c-.94,0-1.64-.24-2.11-.71-.47-.47-.7-1.2-.7-2.19v-13.62c0-5.32-1.51-9.64-4.54-12.95-3.03-3.31-7.43-4.97-13.23-4.97-5.48,0-9.8,1.28-12.95,3.83-3.16,2.56-5.1,5.87-5.83,9.94l10.33,2.19c.52-4.28,3.1-6.42,7.75-6.42,2.5,0,4.36.69,5.56,2.07.92,1.06,1.48,2.53,1.69,4.4l-11.4,2.37c-5.06.99-8.7,2.62-10.92,4.89-2.22,2.27-3.33,5.13-3.33,8.57s1.23,6.35,3.68,8.57c2.45,2.22,5.76,3.32,9.94,3.32,3.44,0,6.39-.86,8.84-2.58,2.15-1.51,3.59-3.59,4.34-6.26h.12v.94c0,2.24.74,4.03,2.23,5.36,1.49,1.33,3.51,2,6.06,2s4.72-.6,6.65-1.8v-7.2c-.73.11-1.46.18-2.19.24"/>
        <path class="cls-5" d="M110.21,114.39c-.85-.49-1.5-1.19-1.95-2.09-.46-.9-.68-1.97-.68-3.19s.23-2.27.68-3.17c.45-.9,1.11-1.6,1.96-2.09.85-.49,1.86-.73,3.04-.73,1.41,0,2.57.36,3.47,1.08.9.72,1.51,1.73,1.83,3.05l-1.94.45c-.26-.92-.66-1.6-1.21-2.05-.55-.44-1.26-.66-2.11-.66-1.12,0-1.98.35-2.58,1.07-.6.71-.9,1.73-.9,3.06s.3,2.35.9,3.07c.6.72,1.46,1.08,2.58,1.08.85,0,1.55-.22,2.11-.66.55-.44.95-1.14,1.2-2.1l1.94.46c-.3,1.33-.91,2.36-1.82,3.09-.91.73-2.06,1.09-3.46,1.09-1.19,0-2.21-.24-3.05-.73"/>
        <path class="cls-5" d="M121.16,113.87c-.81-.84-1.21-2.03-1.21-3.57,0-1.01.18-1.89.55-2.61.37-.73.88-1.28,1.55-1.66.66-.38,1.43-.57,2.31-.57s1.59.19,2.23.57c.64.38,1.13.93,1.48,1.64.35.72.52,1.58.52,2.58v.52h-7.03v-1.4h5.86l-.77.89c.02-1.05-.16-1.84-.54-2.37-.38-.53-.98-.8-1.78-.8s-1.39.26-1.78.77c-.4.51-.6,1.28-.6,2.29v.23c0,1,.22,1.76.67,2.27.45.51,1.1.77,1.97.77,1.13,0,1.98-.49,2.55-1.49l1.4,1.08c-.37.65-.9,1.17-1.57,1.54-.68.37-1.47.56-2.4.56-1.47,0-2.61-.42-3.41-1.26"/>
        <path class="cls-5" d="M136.35,107.82c-.31-.34-.78-.52-1.41-.52s-1.18.21-1.59.62c-.41.41-.61,1.04-.61,1.88h-.21v-2.06c.17-.74.54-1.3,1.08-1.7.55-.4,1.19-.6,1.94-.6,1.04,0,1.85.3,2.42.91.58.61.87,1.51.87,2.71v5.84h-2.03v-5.56c0-.68-.15-1.19-.46-1.53M130.64,105.65h1.92c.05.54.07,1.1.07,1.68h.1v7.59h-2.03v-7.19c0-.75-.02-1.44-.07-2.08"/>
        <path class="cls-5" d="M142.49,114.47c-.4-.41-.6-1.03-.6-1.86v-5.94l.04-.32v-2.83h1.99v8.8c0,.35.08.61.24.77.16.16.41.24.75.24.4,0,.75-.05,1.07-.14v1.43c-.23.15-.5.27-.79.35-.3.08-.61.12-.94.12-.77,0-1.35-.21-1.76-.62M140.35,105.79h5.63v1.73h-5.63v-1.73Z"/>
        <path class="cls-5" d="M150.73,106.07c.54-.41,1.17-.61,1.91-.61h.17v2.05h-.46c-.8,0-1.42.19-1.83.59-.42.39-.63,1.04-.63,1.95h-.18v-2.24c.14-.75.48-1.32,1.01-1.73M147.8,105.65h1.92c.05.54.07,1.11.07,1.73h.1v7.54h-2.03v-7.19c0-.77-.02-1.46-.07-2.08"/>
        <path class="cls-5" d="M154.7,113.87c-.8-.84-1.21-2.03-1.21-3.57,0-1.01.18-1.89.55-2.61.37-.73.88-1.28,1.55-1.66.66-.38,1.43-.57,2.31-.57s1.59.19,2.23.57c.64.38,1.13.93,1.48,1.64.35.72.52,1.58.52,2.58v.52h-7.03v-1.4h5.86l-.77.89c.02-1.05-.16-1.84-.54-2.37-.39-.53-.98-.8-1.78-.8s-1.39.26-1.78.77c-.4.51-.6,1.28-.6,2.29v.23c0,1,.22,1.76.67,2.27.45.51,1.1.77,1.97.77,1.13,0,1.98-.49,2.55-1.49l1.4,1.08c-.37.65-.9,1.17-1.57,1.54-.68.37-1.48.56-2.4.56-1.47,0-2.61-.42-3.41-1.26"/>
        <path class="cls-5" d="M173.63,113.04h-.11v-5.63h.05c-.05-.47-.07-.9-.07-1.29v-3.9h2.03v10.62c0,.65.02,1.35.07,2.08h-1.92c-.05-.56-.07-1.18-.05-1.87M172.87,112.51c.43-.51.65-1.24.65-2.21s-.22-1.72-.65-2.23c-.43-.51-1-.76-1.71-.76-.75,0-1.31.25-1.7.75-.38.5-.58,1.25-.58,2.24s.19,1.72.58,2.22c.38.5.95.75,1.7.75s1.28-.25,1.71-.76M168.7,114.57c-.58-.37-1.04-.92-1.37-1.64-.34-.72-.51-1.6-.51-2.62s.17-1.93.51-2.66c.34-.72.79-1.27,1.37-1.64.58-.37,1.23-.55,1.95-.55.89,0,1.62.27,2.2.82.58.55.9,1.38.94,2.48v3.06c-.05,1.09-.36,1.92-.94,2.47-.58.55-1.32.83-2.2.83-.72,0-1.37-.19-1.95-.56"/>
        <path class="cls-5" d="M178.85,113.87c-.8-.84-1.21-2.03-1.21-3.57,0-1.01.18-1.89.55-2.61.37-.73.88-1.28,1.55-1.66.66-.38,1.43-.57,2.31-.57s1.59.19,2.23.57c.64.38,1.13.93,1.48,1.64.35.72.52,1.58.52,2.58v.52h-7.03v-1.4h5.86l-.77.89c.02-1.05-.16-1.84-.54-2.37-.39-.53-.98-.8-1.78-.8s-1.39.26-1.78.77c-.4.51-.6,1.28-.6,2.29v.23c0,1,.22,1.76.67,2.27.45.51,1.1.77,1.97.77,1.13,0,1.98-.49,2.55-1.49l1.4,1.08c-.37.65-.9,1.17-1.57,1.54-.68.37-1.48.56-2.4.56-1.47,0-2.61-.42-3.41-1.26"/>
        <path class="cls-5" d="M194.5,106.07c.54-.41,1.17-.61,1.91-.61h.18v2.05h-.46c-.8,0-1.42.19-1.83.59-.42.39-.63,1.04-.63,1.95h-.18v-2.24c.14-.75.48-1.32,1.01-1.73M191.57,105.65h1.92c.05.54.07,1.11.07,1.73h.1v7.54h-2.03v-7.19c0-.77-.02-1.46-.07-2.08"/>
        <path class="cls-5" d="M198.47,113.87c-.8-.84-1.21-2.03-1.21-3.57,0-1.01.18-1.89.55-2.61.37-.73.88-1.28,1.55-1.66.66-.38,1.43-.57,2.31-.57s1.59.19,2.23.57c.64.38,1.13.93,1.48,1.64.35.72.52,1.58.52,2.58v.52h-7.03v-1.4h5.86l-.77.89c.02-1.05-.16-1.84-.54-2.37-.39-.53-.98-.8-1.78-.8s-1.39.26-1.78.77c-.4.51-.6,1.28-.6,2.29v.23c0,1,.22,1.76.67,2.27.45.51,1.1.77,1.97.77,1.13,0,1.98-.49,2.55-1.49l1.4,1.08c-.37.65-.9,1.17-1.57,1.54-.68.37-1.48.56-2.4.56-1.47,0-2.61-.42-3.41-1.26"/>
        <path class="cls-5" d="M209.57,114.56c-.67-.38-1.19-.93-1.57-1.66s-.56-1.6-.56-2.61.19-1.89.56-2.61c.37-.73.89-1.28,1.57-1.65.67-.37,1.44-.56,2.3-.56,1.08,0,1.98.3,2.69.9.71.6,1.18,1.45,1.42,2.54l-1.77.47c-.16-.69-.44-1.22-.84-1.58-.4-.37-.89-.55-1.47-.55-.78,0-1.38.26-1.8.78-.42.52-.63,1.27-.63,2.26s.21,1.76.63,2.27c.42.51,1.02.77,1.8.77.58,0,1.07-.18,1.47-.54.4-.36.67-.89.82-1.59l1.78.47c-.23,1.1-.71,1.95-1.42,2.55-.71.61-1.61.91-2.69.91-.86,0-1.63-.19-2.3-.57"/>
        <path class="cls-5" d="M223.58,107.82c-.31-.34-.78-.52-1.41-.52s-1.18.21-1.59.62c-.41.41-.61,1.04-.61,1.88h-.21v-2.06c.17-.73.54-1.3,1.08-1.7.55-.4,1.2-.59,1.94-.59,1.04,0,1.84.3,2.42.91.58.61.86,1.51.86,2.71v5.84h-2.03v-5.56c0-.68-.15-1.19-.46-1.53M217.94,102.22h2.03v3.92c0,.26-.01.61-.04,1.05h.04v7.73h-2.03v-12.7Z"/>
        <path class="cls-5" d="M229.2,113.87c-.8-.84-1.21-2.03-1.21-3.57,0-1.01.18-1.89.55-2.61.37-.73.88-1.28,1.55-1.66.66-.38,1.43-.57,2.31-.57s1.59.19,2.23.57c.64.38,1.13.93,1.48,1.64.35.72.52,1.58.52,2.58v.52h-7.03v-1.4h5.86l-.77.89c.02-1.05-.16-1.84-.54-2.37-.39-.53-.98-.8-1.78-.8s-1.39.26-1.78.77c-.4.51-.6,1.28-.6,2.29v.23c0,1,.22,1.76.67,2.27.45.51,1.1.77,1.97.77,1.13,0,1.98-.49,2.55-1.49l1.4,1.08c-.37.65-.9,1.17-1.57,1.54-.68.37-1.48.56-2.4.56-1.47,0-2.61-.42-3.41-1.26"/>
        <path class="cls-5" d="M241.61,106.07c.54-.41,1.17-.61,1.91-.61h.17v2.05h-.46c-.8,0-1.42.19-1.83.59-.42.39-.63,1.04-.63,1.95h-.18v-2.24c.14-.75.48-1.32,1.01-1.73M238.68,105.65h1.92c.05.54.07,1.11.07,1.73h.1v7.54h-2.03v-7.19c0-.77-.02-1.46-.07-2.08"/>
        <path class="cls-5" d="M246.5,114.56c-.67-.38-1.19-.93-1.57-1.66s-.56-1.6-.56-2.61.19-1.89.56-2.61c.37-.73.89-1.28,1.57-1.65.67-.37,1.44-.56,2.3-.56,1.08,0,1.98.3,2.69.9.71.6,1.18,1.45,1.42,2.54l-1.77.47c-.16-.69-.44-1.22-.84-1.58-.4-.37-.89-.55-1.47-.55-.78,0-1.38.26-1.8.78-.42.52-.63,1.27-.63,2.26s.21,1.76.63,2.27c.42.51,1.02.77,1.8.77.58,0,1.07-.18,1.47-.54.4-.36.67-.89.82-1.59l1.78.47c-.23,1.1-.71,1.95-1.42,2.55-.71.61-1.61.91-2.69.91-.86,0-1.63-.19-2.3-.57"/>
        <path class="cls-5" d="M260.51,107.82c-.31-.34-.78-.52-1.41-.52s-1.18.21-1.59.62c-.41.41-.61,1.04-.61,1.88h-.21v-2.06c.17-.73.54-1.3,1.08-1.7.55-.4,1.19-.59,1.94-.59,1.04,0,1.85.3,2.42.91.58.61.87,1.51.87,2.71v5.84h-2.03v-5.56c0-.68-.15-1.19-.46-1.53M254.87,102.22h2.03v3.92c0,.26-.01.61-.04,1.05h.04v7.73h-2.03v-12.7Z"/>
        <path class="cls-5" d="M266.13,113.87c-.8-.84-1.21-2.03-1.21-3.57,0-1.01.18-1.89.55-2.61.37-.73.88-1.28,1.55-1.66.66-.38,1.43-.57,2.31-.57s1.59.19,2.23.57c.64.38,1.13.93,1.48,1.64.35.72.52,1.58.52,2.58v.52h-7.03v-1.4h5.86l-.77.89c.02-1.05-.16-1.84-.54-2.37-.39-.53-.98-.8-1.78-.8s-1.39.26-1.78.77c-.4.51-.59,1.28-.59,2.29v.23c0,1,.22,1.76.67,2.27.45.51,1.1.77,1.97.77,1.13,0,1.98-.49,2.55-1.49l1.4,1.08c-.37.65-.9,1.17-1.57,1.54-.68.37-1.48.56-2.4.56-1.47,0-2.61-.42-3.41-1.26"/>
        <path class="cls-5" d="M108.62,134.85c-.81-.84-1.21-2.03-1.21-3.57,0-1.01.18-1.89.55-2.61.37-.73.88-1.28,1.55-1.66.66-.38,1.43-.57,2.31-.57s1.59.19,2.23.57c.64.38,1.13.93,1.48,1.64.35.72.52,1.58.52,2.58v.53h-7.03v-1.4h5.86l-.77.89c.02-1.05-.16-1.84-.54-2.37-.38-.53-.98-.8-1.78-.8s-1.39.26-1.78.77c-.4.51-.6,1.28-.6,2.29v.23c0,1,.22,1.76.67,2.27.45.51,1.11.77,1.97.77,1.13,0,1.98-.49,2.55-1.49l1.4,1.08c-.37.65-.9,1.17-1.57,1.54-.68.37-1.47.56-2.4.56-1.47,0-2.61-.42-3.41-1.26"/>
        <path class="cls-5" d="M123.81,128.81c-.31-.34-.78-.52-1.41-.52s-1.18.21-1.59.62c-.41.41-.61,1.04-.61,1.88h-.21v-2.06c.18-.74.54-1.3,1.08-1.7.55-.4,1.19-.6,1.94-.6,1.04,0,1.85.3,2.42.91.58.61.87,1.51.87,2.71v5.84h-2.03v-5.56c0-.68-.15-1.19-.46-1.53M118.1,126.63h1.92c.05.54.07,1.1.07,1.68h.1v7.59h-2.03v-7.19c0-.75-.02-1.44-.07-2.08"/>
        <path class="cls-5" d="M131.46,133.42l1.73-.65c.19.59.49,1.03.9,1.3.41.27.95.41,1.6.41.57,0,1.02-.11,1.34-.32.32-.22.48-.51.48-.88,0-.26-.06-.47-.18-.63-.12-.16-.34-.3-.65-.4-.31-.1-.74-.18-1.3-.23-1.28-.1-2.22-.38-2.81-.81-.59-.44-.88-1.06-.88-1.86,0-.56.15-1.06.46-1.5.3-.44.73-.79,1.29-1.03.56-.25,1.21-.37,1.96-.37,1.07,0,1.94.24,2.61.72.67.48,1.12,1.16,1.36,2.05l-1.84.42c-.14-.54-.4-.94-.77-1.2-.37-.26-.85-.39-1.42-.39-.51,0-.92.12-1.23.35-.31.23-.46.53-.46.89,0,.23.06.42.17.57.12.15.32.26.62.35.3.09.71.15,1.25.18,1.38.1,2.35.39,2.93.84.58.45.87,1.13.87,2.01s-.34,1.6-1.03,2.12c-.69.51-1.63.77-2.82.77-2.23,0-3.62-.9-4.18-2.69"/>
        <path class="cls-5" d="M147.59,135.58c-.3-.28-.45-.69-.45-1.2v-.31h-.16v-3.83c0-.7-.16-1.23-.47-1.58-.32-.36-.81-.53-1.49-.53-1.21,0-1.88.56-2.01,1.68l-1.8-.37c.13-.9.52-1.62,1.19-2.17.66-.55,1.58-.82,2.74-.82,1.22,0,2.15.35,2.79,1.04.63.69.95,1.61.95,2.75v3.52c0,.24.05.43.17.54.11.12.28.17.5.17.18-.01.37-.03.56-.07v1.22c-.39.26-.82.39-1.29.39-.52,0-.94-.14-1.23-.43M141.94,135.39c-.54-.48-.8-1.1-.8-1.85s.24-1.39.71-1.87,1.24-.83,2.32-1.07l2.99-.65v1.38l-2.55.56c-.53.1-.9.27-1.14.51-.23.23-.35.54-.35.91s.12.65.38.86c.25.22.6.32,1.06.32.42,0,.81-.1,1.18-.29.37-.19.67-.49.91-.9.24-.41.36-.92.36-1.52h.24v1.8c-.14.84-.5,1.47-1.08,1.89-.58.42-1.27.63-2.07.63-.9,0-1.62-.24-2.15-.72"/>
        <path class="cls-5" d="M157.4,128.81c-.31-.34-.78-.52-1.41-.52s-1.18.21-1.59.62c-.41.41-.61,1.04-.61,1.88h-.21v-2.06c.17-.74.54-1.3,1.08-1.7.55-.4,1.19-.6,1.94-.6,1.04,0,1.85.3,2.42.91s.87,1.51.87,2.71v5.84h-2.03v-5.56c0-.68-.15-1.19-.46-1.53M151.69,126.63h1.92c.05.54.07,1.1.07,1.68h.1v7.59h-2.03v-7.19c0-.75-.02-1.44-.07-2.08"/>
        <path class="cls-5" d="M163.54,135.45c-.4-.41-.6-1.03-.6-1.86v-5.95l.04-.31v-2.83h1.99v8.8c0,.35.08.61.24.77.16.16.41.25.75.25.4,0,.75-.05,1.07-.14v1.43c-.23.15-.5.27-.8.35-.3.08-.61.12-.94.12-.77,0-1.36-.21-1.76-.62M161.4,126.77h5.63v1.73h-5.63v-1.73Z"/>
        <path class="cls-5" d="M175.28,122.45l-2.1,2.94h-1.77l1.64-2.94h2.22ZM169.36,134.85c-.8-.84-1.21-2.03-1.21-3.57,0-1.01.18-1.89.55-2.61.37-.73.88-1.28,1.55-1.66.66-.38,1.43-.57,2.31-.57s1.59.19,2.23.57c.64.38,1.13.93,1.48,1.64.35.72.52,1.58.52,2.58v.53h-7.03v-1.4h5.86l-.77.89c.02-1.05-.16-1.84-.54-2.37-.39-.53-.98-.8-1.78-.8s-1.39.26-1.78.77c-.4.51-.6,1.28-.6,2.29v.23c0,1,.22,1.76.67,2.27.45.51,1.1.77,1.97.77,1.13,0,1.98-.49,2.55-1.49l1.4,1.08c-.37.65-.9,1.17-1.57,1.54-.68.37-1.48.56-2.4.56-1.47,0-2.61-.42-3.41-1.26"/>
        <path class="cls-5" d="M193.65,128.81c-.3-.34-.75-.52-1.35-.52-.64,0-1.16.21-1.56.62-.4.41-.6,1.04-.6,1.88h-.35v-1.92c.21-.79.59-1.4,1.14-1.81.55-.41,1.2-.62,1.96-.62,1.01,0,1.81.31,2.38.92.57.61.86,1.51.86,2.7v5.84h-2.03v-5.56c0-.68-.15-1.19-.46-1.53M187.67,128.81c-.3-.34-.74-.52-1.34-.52-.64,0-1.16.21-1.57.62-.4.41-.6,1.04-.6,1.88h-.23v-2.06c.18-.75.53-1.31,1.08-1.7.54-.39,1.18-.59,1.91-.59,1,0,1.79.31,2.36.92.57.61.86,1.51.86,2.7v5.84h-2.03v-5.56c0-.68-.15-1.19-.45-1.53M182.07,126.63h1.92c.05.54.07,1.08.07,1.64h.1v7.62h-2.03v-7.19c0-.75-.02-1.44-.07-2.08"/>
        <path class="cls-5" d="M199.28,134.85c-.8-.84-1.21-2.03-1.21-3.57,0-1.01.18-1.89.55-2.61.37-.73.88-1.28,1.55-1.66.66-.38,1.43-.57,2.31-.57s1.59.19,2.23.57c.64.38,1.13.93,1.48,1.64.35.72.52,1.58.52,2.58v.53h-7.03v-1.4h5.86l-.77.89c.02-1.05-.16-1.84-.54-2.37-.39-.53-.98-.8-1.78-.8s-1.39.26-1.78.77c-.4.51-.6,1.28-.6,2.29v.23c0,1,.22,1.76.67,2.27.45.51,1.1.77,1.97.77,1.13,0,1.98-.49,2.55-1.49l1.4,1.08c-.37.65-.9,1.17-1.57,1.54-.68.37-1.48.56-2.4.56-1.47,0-2.61-.42-3.41-1.26"/>
        <path class="cls-5" d="M214.47,128.81c-.31-.34-.78-.52-1.41-.52s-1.18.21-1.59.62c-.41.41-.61,1.04-.61,1.88h-.21v-2.06c.17-.74.54-1.3,1.08-1.7.55-.4,1.19-.6,1.94-.6,1.04,0,1.85.3,2.42.91s.87,1.51.87,2.71v5.84h-2.03v-5.56c0-.68-.15-1.19-.46-1.53M208.75,126.63h1.92c.05.54.07,1.1.07,1.68h.11v7.59h-2.03v-7.19c0-.75-.02-1.44-.07-2.08"/>
        <path class="cls-5" d="M220.6,135.45c-.4-.41-.6-1.03-.6-1.86v-5.95l.04-.31v-2.83h1.99v8.8c0,.35.08.61.24.77.16.16.41.25.75.25.4,0,.75-.05,1.07-.14v1.43c-.23.15-.5.27-.79.35-.3.08-.61.12-.94.12-.77,0-1.36-.21-1.76-.62M218.46,126.77h5.63v1.73h-5.63v-1.73Z"/>
        <path class="cls-5" d="M231.85,135.58c-.3-.28-.45-.69-.45-1.2v-.31h-.16v-3.83c0-.7-.16-1.23-.47-1.58-.32-.36-.81-.53-1.49-.53-1.21,0-1.88.56-2.01,1.68l-1.8-.37c.13-.9.52-1.62,1.19-2.17.66-.55,1.58-.82,2.74-.82,1.22,0,2.15.35,2.79,1.04.63.69.95,1.61.95,2.75v3.52c0,.24.05.43.17.54.11.12.28.17.5.17.19-.01.37-.03.56-.07v1.22c-.39.26-.82.39-1.29.39-.52,0-.94-.14-1.23-.43M226.19,135.39c-.54-.48-.8-1.1-.8-1.85s.24-1.39.71-1.87,1.24-.83,2.32-1.07l2.99-.65v1.38l-2.55.56c-.52.1-.9.27-1.14.51-.23.23-.35.54-.35.91s.12.65.38.86c.25.22.6.32,1.06.32.42,0,.81-.1,1.18-.29.37-.19.67-.49.91-.9.24-.41.36-.92.36-1.52h.24v1.8c-.14.84-.5,1.47-1.08,1.89-.58.42-1.27.63-2.07.63-.9,0-1.62-.24-2.15-.72"/>
      </g>
      <rect class="cls-5" x="236.02" y="123.2" width="2.03" height="12.7"/>
      <g>
        <path class="cls-5" d="M241.37,134.85c-.8-.84-1.21-2.03-1.21-3.57,0-1.01.18-1.89.55-2.61.37-.73.88-1.28,1.55-1.66.66-.38,1.43-.57,2.31-.57s1.59.19,2.23.57c.64.38,1.13.93,1.48,1.64.35.72.52,1.58.52,2.58v.53h-7.03v-1.4h5.86l-.77.89c.02-1.05-.16-1.84-.54-2.37-.39-.53-.98-.8-1.78-.8s-1.39.26-1.78.77c-.4.51-.6,1.28-.6,2.29v.23c0,1,.22,1.76.67,2.27.45.51,1.1.77,1.97.77,1.13,0,1.98-.49,2.55-1.49l1.4,1.08c-.37.65-.9,1.17-1.57,1.54-.68.37-1.48.56-2.4.56-1.47,0-2.61-.42-3.41-1.26"/>
        <path class="cls-5" d="M108.62,155.84c-.81-.84-1.21-2.03-1.21-3.57,0-1.02.18-1.89.55-2.61.37-.73.88-1.28,1.55-1.66.66-.38,1.43-.57,2.31-.57s1.59.19,2.23.57c.64.38,1.13.93,1.48,1.64.35.72.52,1.58.52,2.58v.52h-7.03v-1.4h5.86l-.77.89c.02-1.05-.16-1.84-.54-2.37-.38-.53-.98-.8-1.78-.8s-1.39.26-1.78.77c-.4.51-.6,1.28-.6,2.29v.23c0,1,.22,1.76.67,2.27.45.51,1.11.77,1.97.77,1.13,0,1.98-.5,2.55-1.49l1.4,1.08c-.37.65-.9,1.16-1.57,1.54-.68.37-1.47.56-2.4.56-1.47,0-2.61-.42-3.41-1.26"/>
        <path class="cls-5" d="M119.23,156.44c-.4-.41-.6-1.03-.6-1.86v-5.95l.04-.32v-2.83h1.99v8.8c0,.35.08.61.24.77.16.16.41.25.75.25.4,0,.75-.05,1.07-.14v1.43c-.23.15-.5.27-.79.35-.3.08-.61.12-.94.12-.77,0-1.36-.21-1.76-.62M117.09,147.76h5.63v1.73h-5.63v-1.73Z"/>
        <path class="cls-5" d="M133.92,154.49c.38-.5.57-1.24.57-2.22s-.19-1.74-.57-2.24c-.38-.5-.94-.75-1.69-.75s-1.3.25-1.72.76c-.43.51-.64,1.25-.64,2.23s.21,1.7.64,2.21c.43.51,1,.76,1.72.76s1.31-.25,1.69-.75M130.54,156.26c-.58-.55-.9-1.38-.94-2.47v-3.06c.05-1.11.36-1.94.94-2.48.58-.55,1.31-.82,2.19-.82.72,0,1.38.18,1.96.55.58.37,1.04.91,1.37,1.64.33.72.5,1.61.5,2.66s-.17,1.9-.5,2.62c-.33.72-.79,1.27-1.37,1.64-.58.37-1.24.56-1.96.56-.87,0-1.6-.28-2.19-.83M127.77,147.62h1.94c.05.56.06,1.18.04,1.85h.12v5.65h-.07c.05.4.07.84.07,1.33v3.85h-2.03v-10.6c0-.65-.02-1.35-.07-2.08"/>
        <path class="cls-5" d="M138.07,154.4l1.73-.65c.19.59.49,1.03.9,1.3.41.27.95.41,1.6.41.57,0,1.02-.11,1.34-.32.32-.22.48-.51.48-.88,0-.26-.06-.47-.18-.63-.12-.16-.34-.3-.65-.4s-.74-.18-1.3-.23c-1.28-.1-2.22-.38-2.81-.81-.59-.44-.88-1.06-.88-1.86,0-.56.15-1.06.46-1.5.3-.44.73-.79,1.29-1.03.56-.24,1.21-.37,1.96-.37,1.07,0,1.94.24,2.61.72.67.48,1.12,1.16,1.36,2.05l-1.84.42c-.14-.54-.4-.93-.77-1.2-.37-.26-.85-.39-1.42-.39-.51,0-.92.12-1.23.35-.31.23-.46.53-.46.89,0,.23.06.42.18.57.12.15.32.26.62.35.3.09.71.15,1.25.18,1.38.11,2.35.39,2.93.84.58.45.87,1.12.87,2.01s-.34,1.6-1.03,2.12c-.69.51-1.63.77-2.82.77-2.23,0-3.62-.9-4.18-2.69"/>
        <path class="cls-5" d="M147.69,160.1v-1.49c.35.07.73.1,1.15.1.44,0,.78-.11,1.02-.33.24-.22.36-.54.36-.96,0-.28-.04-.58-.13-.91-.09-.33-.26-.82-.52-1.47l-2.83-7.43h2.19l2.15,6.03c.31.88.51,1.94.58,3.18h-.38c.15-1.24.37-2.3.65-3.18l1.87-6.03h2.1l-3.62,10.39c-.29.86-.68,1.48-1.18,1.86-.49.38-1.12.57-1.86.57-.57,0-1.08-.11-1.54-.33"/>
        <path class="cls-5" d="M158.65,156.53c-.67-.38-1.19-.93-1.57-1.66s-.56-1.6-.56-2.61.19-1.89.56-2.61.89-1.28,1.57-1.65c.67-.37,1.44-.56,2.3-.56,1.08,0,1.98.3,2.69.9.71.6,1.18,1.45,1.42,2.55l-1.77.47c-.16-.69-.44-1.22-.84-1.58-.4-.37-.89-.55-1.47-.55-.78,0-1.38.26-1.8.78-.42.52-.63,1.27-.63,2.27s.21,1.76.63,2.27c.42.51,1.02.77,1.8.77.58,0,1.07-.18,1.47-.54.4-.36.67-.89.82-1.59l1.78.47c-.23,1.1-.71,1.95-1.42,2.55-.71.61-1.61.91-2.69.91-.86,0-1.63-.19-2.3-.57"/>
        <path class="cls-5" d="M172.65,149.79c-.31-.34-.78-.52-1.41-.52s-1.18.21-1.59.62c-.41.41-.61,1.04-.61,1.88h-.21v-2.06c.18-.73.54-1.3,1.08-1.7.55-.4,1.2-.6,1.94-.6,1.04,0,1.84.3,2.42.91.58.61.86,1.51.86,2.71v5.84h-2.03v-5.56c0-.68-.15-1.19-.46-1.53M167.01,144.19h2.03v3.92c0,.26-.01.61-.04,1.05h.04v7.73h-2.03v-12.7Z"/>
        <path class="cls-5" d="M179.8,156.88h-2.03v-9.27h2.03v9.27ZM177.79,145.96c-.25-.23-.38-.54-.38-.94s.12-.7.38-.93c.25-.22.59-.33,1.01-.33s.74.11.99.33c.25.22.38.53.38.93s-.12.71-.38.94c-.25.23-.58.34-.99.34s-.75-.11-1.01-.34"/>
        <path class="cls-5" d="M188.48,156.56c-.3-.28-.45-.68-.45-1.2v-.32h-.16v-3.83c0-.7-.16-1.23-.47-1.58-.32-.35-.81-.53-1.49-.53-1.21,0-1.88.56-2.01,1.68l-1.8-.37c.13-.9.52-1.62,1.19-2.17.66-.55,1.58-.82,2.74-.82,1.22,0,2.15.35,2.79,1.04.63.69.95,1.61.95,2.75v3.51c0,.24.05.43.17.54.11.12.28.17.5.17.18-.01.37-.03.56-.07v1.22c-.39.26-.82.38-1.29.38-.52,0-.94-.14-1.23-.43M182.82,156.38c-.54-.48-.8-1.1-.8-1.85s.24-1.39.71-1.87c.47-.48,1.24-.83,2.32-1.07l2.99-.65v1.38l-2.55.56c-.53.1-.9.27-1.14.51-.23.23-.35.54-.35.91s.12.65.38.86c.25.22.6.32,1.06.32.42,0,.81-.1,1.18-.29.37-.19.67-.49.91-.9.24-.41.36-.91.36-1.52h.24v1.8c-.14.84-.5,1.47-1.08,1.89-.58.42-1.27.63-2.07.63-.9,0-1.62-.24-2.15-.72"/>
        <path class="cls-5" d="M193.71,156.44c-.4-.41-.6-1.03-.6-1.86v-5.95l.04-.32v-2.83h1.99v8.8c0,.35.08.61.25.77.16.16.41.25.75.25.4,0,.75-.05,1.07-.14v1.43c-.23.15-.5.27-.8.35-.3.08-.61.12-.94.12-.77,0-1.35-.21-1.76-.62M191.57,147.76h5.63v1.73h-5.63v-1.73Z"/>
        <path class="cls-5" d="M201.95,148.04c.54-.41,1.17-.61,1.91-.61h.18v2.05h-.46c-.8,0-1.42.19-1.83.59-.42.39-.63,1.04-.63,1.95h-.18v-2.24c.14-.75.48-1.32,1.01-1.73M199.01,147.62h1.92c.05.54.07,1.11.07,1.73h.1v7.54h-2.03v-7.19c0-.77-.02-1.46-.07-2.08"/>
        <path class="cls-5" d="M207.58,156.88h-2.03v-9.27h2.03v9.27ZM205.58,145.96c-.25-.23-.38-.54-.38-.94s.12-.7.38-.93c.25-.22.59-.33,1.01-.33s.74.11.99.33c.25.22.38.53.38.93s-.12.71-.38.94c-.25.23-.58.34-.99.34s-.75-.11-1.01-.34"/>
        <path class="cls-5" d="M210.91,155.84c-.8-.84-1.21-2.03-1.21-3.57,0-1.02.18-1.89.55-2.61.37-.73.88-1.28,1.55-1.66.66-.38,1.43-.57,2.31-.57s1.59.19,2.23.57c.64.38,1.13.93,1.48,1.64.35.72.52,1.58.52,2.58v.52h-7.03v-1.4h5.86l-.77.89c.02-1.05-.16-1.84-.54-2.37-.39-.53-.98-.8-1.78-.8s-1.39.26-1.78.77c-.4.51-.6,1.28-.6,2.29v.23c0,1,.22,1.76.67,2.27.45.51,1.1.77,1.97.77,1.13,0,1.98-.5,2.55-1.49l1.4,1.08c-.37.65-.9,1.16-1.57,1.54-.68.37-1.48.56-2.4.56-1.47,0-2.61-.42-3.41-1.26"/>
      </g>
      <rect class="cls-5" x="223.01" y="151.18" width="4.81" height="1.85"/>
      <g>
        <path class="cls-5" d="M234.69,150.54h3.22c.86,0,1.47-.15,1.83-.45.36-.3.53-.73.53-1.3s-.18-1-.53-1.3c-.36-.29-.96-.44-1.83-.44h-3.22v-1.77h3.45c1.44,0,2.52.31,3.24.94.71.63,1.07,1.48,1.07,2.55s-.36,1.92-1.07,2.55c-.71.63-1.79.94-3.24.94h-3.45v-1.75ZM233.41,145.29h2.15v11.59h-2.15v-11.59Z"/>
        <path class="cls-5" d="M244.78,152.43h6.4v1.7h-6.4v-1.7ZM246.77,145.29h2.47l4.37,11.59h-2.24l-2.73-7.54c-.16-.45-.34-1-.53-1.64-.19-.64-.33-1.2-.44-1.66h.52c-.09.45-.23.98-.4,1.59-.18.61-.36,1.18-.56,1.71l-2.73,7.54h-2.13l4.39-11.59Z"/>
        <path class="cls-5" d="M257.17,156.36c-.85-.49-1.49-1.19-1.95-2.09-.46-.9-.68-1.97-.68-3.19s.23-2.27.68-3.17c.46-.9,1.11-1.6,1.96-2.09.85-.49,1.86-.73,3.04-.73,1.41,0,2.57.36,3.47,1.07.9.72,1.51,1.73,1.83,3.05l-1.94.45c-.26-.92-.66-1.6-1.21-2.05-.55-.44-1.26-.66-2.11-.66-1.12,0-1.98.35-2.58,1.07-.6.71-.9,1.73-.9,3.06s.3,2.35.9,3.07c.6.72,1.46,1.07,2.58,1.07.85,0,1.55-.22,2.11-.66.55-.44.95-1.14,1.2-2.1l1.94.45c-.3,1.33-.91,2.36-1.82,3.09-.91.73-2.06,1.09-3.46,1.09-1.19,0-2.21-.24-3.05-.73"/>
        <path class="cls-5" d="M268.7,152.43h6.4v1.7h-6.4v-1.7ZM270.69,145.29h2.47l4.37,11.59h-2.24l-2.73-7.54c-.16-.45-.34-1-.52-1.64-.19-.64-.33-1.2-.44-1.66h.52c-.09.45-.23.98-.4,1.59-.18.61-.36,1.18-.56,1.71l-2.73,7.54h-2.13l4.39-11.59Z"/>
        <path class="cls-3" d="M55.67,0h-27.84c15.37,0,27.84,12.47,27.84,27.84v27.84c15.37,0,27.84-12.47,27.84-27.84S71.04,0,55.67,0"/>
        <path class="cls-1" d="M27.84,0h0C12.47,0,0,12.47,0,27.84v27.84c0-15.37,12.47-27.84,27.84-27.84h27.84C55.67,12.47,43.2,0,27.84,0"/>
        <path class="cls-4" d="M55.67,55.67h-27.85v27.84h28.12c15.24-.16,27.56-12.56,27.56-27.84v-27.84c0,15.37-12.47,27.84-27.84,27.84"/>
        <path class="cls-5" d="M27.84,27.84C12.47,27.84,0,40.31,0,55.67v55.68c15.37,0,27.84-12.47,27.84-27.84V27.84Z"/>
      </g>
    </g>
  </g>
</svg>